Coordinates
version=1
nRows=14
nColumns=24
inDegrees=yes

Units are S.I. units (second, meters, Newtons, ...)
Angles are in degrees.

endheader
time	pelvis_tilt	pelvis_list	pelvis_rotation	pelvis_tx	pelvis_ty	pelvis_tz	hip_flexion_r	hip_adduction_r	hip_rotation_r	knee_angle_r	ankle_angle_r	subtalar_angle_r	mtp_angle_r	hip_flexion_l	hip_adduction_l	hip_rotation_l	knee_angle_l	ankle_angle_l	subtalar_angle_l	mtp_angle_l	lumbar_extension	lumbar_bending	lumbar_rotation
      2.04000000	     24.63162128	     -4.72202629	      7.68492792	      0.17043448	      0.85799057	     -0.00130553	    -22.48143023	     11.86869197	    -20.78132573	     -3.39795647	     22.91916592	     13.58832459	     35.10390600	     -5.42389363	    -10.76076369	     -6.49764183	    -64.70408605	     18.98972633	     -2.40167685	     49.76956051	    -37.37831918	      9.48400393	     -7.70373863
      2.04500000	     24.59489808	     -4.56745851	      7.52192631	      0.17568407	      0.85841704	     -0.00060365	    -22.95890701	     11.75283229	    -20.56457352	     -3.18912513	     23.07761430	     13.61324635	     35.00450735	     -4.99031448	    -10.44921365	     -6.78976429	    -63.62652058	     19.51714302	     -1.97133033	     49.72998196	    -37.37984442	      9.21728530	     -7.59392866
      2.05000000	     24.56932729	     -4.41921080	      7.36245697	      0.18093916	      0.85880997	      0.00008981	    -23.45622493	     11.64626028	    -20.32834194	     -2.95929523	     23.22397666	     13.59424437	     34.86559907	     -4.59235738	    -10.14837232	     -7.09528602	    -62.46132770	     20.01079845	     -1.56772212	     49.63005477	    -37.39013442	      8.95624200	     -7.48224548
      2.05500000	     24.55956864	     -4.27274742	      7.21025762	      0.18621573	      0.85917502	      0.00077337	    -23.98112224	     11.54641825	    -20.08164948	     -2.70548033	     23.35401842	     13.55872998	     34.68140621	     -4.23851185	     -9.85308172	     -7.40442846	    -61.20921643	     20.47361075	     -1.20502033	     49.45907138	    -37.41172887	      8.69867035	     -7.36935820
      2.06000000	     24.51918857	     -4.15804710	      7.09349816	      0.19150405	      0.85943438	      0.00141237	    -24.48330123	     11.49306783	    -19.78391039	     -2.42114884	     23.52620136	     13.45094216	     33.41676237	     -3.84981865	     -9.58928609	     -7.67269239	    -59.92345404	     21.04831159	     -0.77507448	     47.95451298	    -37.39045780	      8.48632494	     -7.29168043
      2.06500000	     24.50860096	     -3.99872722	      6.94030759	      0.19683011	      0.85973771	      0.00202609	    -24.99321769	     11.36275564	    -19.62544307	     -2.21527573	     23.70690515	     13.54396745	     33.36573497	     -3.55652722	     -9.27267988	     -8.00729178	    -58.48986735	     21.38643470	     -0.58229705	     47.91388584	    -37.40248105	      8.21935894	     -7.19988831
      2.07000000	     24.52780463	     -3.84176302	      6.81293000	      0.20218995	      0.86002119	      0.00263187	    -25.55772226	     11.25669516	    -19.44480133	     -1.95727001	     23.83703609	     13.54242969	     33.26493301	     -3.32023738	     -8.97004503	     -8.33007805	    -56.97902498	     21.72045308	     -0.42894545	     47.82472086	    -37.43701912	      7.96131887	     -7.13358430
      2.07500000	     24.54291711	     -3.69255488	      6.69252811	      0.20755981	      0.86025513	      0.00318058	    -26.11800878	     11.15573855	    -19.26942278	     -1.69448201	     23.96350318	     13.52545051	     33.14167379	     -3.10237792	     -8.67063497	     -8.65306363	    -55.39912710	     22.02764240	     -0.32799005	     47.69964174	    -37.46362489	      7.72090598	     -7.07183473
      2.08000000	     24.57443897	     -3.54305208	      6.56862977	      0.21292676	      0.86049112	      0.00368644	    -26.69590732	     11.04675736	    -19.09029302	     -1.43441188	     24.04818059	     13.53773461	     32.93643340	     -2.93844359	     -8.36443388	     -8.98136275	    -53.72776814	     22.30413496	     -0.26930803	     47.48163610	    -37.50908344	      7.48388951	     -7.00828723
      2.08500000	     24.59783336	     -3.38754262	      6.46006058	      0.21834054	      0.86064751	      0.00418569	    -27.26063910	     10.94018048	    -18.95762022	     -1.18875398	     24.22288995	     13.51838350	     32.77328384	     -2.78706338	     -8.05899270	     -9.31450153	    -52.00213132	     22.55486061	     -0.23039690	     47.30074382	    -37.53584873	      7.24117743	     -6.97347490
      2.09000000	     24.62800906	     -3.22659166	      6.37642115	      0.22375794	      0.86078139	      0.00455826	    -27.81483826	     10.82325156	    -18.93498721	     -0.99924544	     24.49761562	     13.76817838	     31.45864700	     -2.67142871	     -7.73084068	     -9.60888038	    -50.20541251	     22.87891510	     -0.16703963	     46.03278503	    -37.56789176	      7.01856951	     -6.97331970
      2.09500000	     24.65398719	     -3.08109247	      6.25399162	      0.22917691	      0.86087168	      0.00499828	    -28.37675309	     10.71058786	    -18.77222810	     -0.76485046	     24.65724588	     13.70883850	     31.40553599	     -2.58647198	     -7.42995028	     -9.97654258	    -48.33320131	     23.07562572	     -0.12186527	     45.99997322	    -37.59744949	      6.78535412	     -6.92570942
      2.10000000	     24.70968962	     -2.92476300	      6.14333362	      0.23459623	      0.86096930	      0.00536195	    -28.96748331	     10.58736693	    -18.67013161	     -0.54021507	     24.77981329	     13.72934638	     31.31968794	     -2.57229243	     -7.10901010	    -10.33750381	    -46.37152100	     23.25083843	     -0.11597786	     45.93500140	    -37.66037810	      6.55581874	     -6.90998055
      2.10500000	     24.76166455	     -2.76219116	      6.03604325	      0.24002597	      0.86102243	      0.00567827	    -29.54573075	     10.45362889	    -18.60095349	     -0.33644727	     24.94739567	     13.77453425	     31.21865118	     -2.58523888	     -6.77472386	    -10.70078022	    -44.34220060	     23.40519350	     -0.08125988	     45.85763891	    -37.71699123	      6.32446129	     -6.91074798
